{"title":"king kong 2005  Blu- ray rip  Spanish Latino only 480p","uid":8083505,"size":1340777269,"categoryP":"video","categoryS":"movies","magnet":"?xt=urn:btih:0dff980566984432f82a7c77873d13b98d9b5b50&amp;dn=king+kong+2005++Blu-+ray+rip++Spanish+Latino+only+480p&amp;tr=udp%3A%2F%2Ftracker.openbittorrent.com%3A80&amp;tr=udp%3A%2F%2Fopen.demonii.com%3A1337&amp;tr=udp%3A%2F%2Ftracker.coppersurfer.tk%3A6969&amp;tr=udp%3A%2F%2Fexodus.desync.com%3A6969","seeders":1,"leechers":1,"uploader":"plumasdepollo","files":-1,"time":1359570958,"description":"\nFormat profile                      : Base Media\nCodec ID                            : isom\nFile size                           : 1.25 GiB\nDuration                            : 3h 7mn\nOverall bit rate                    : 954 Kbps\nEncoded date                        : UTC 2013-01-27 20:10:07\nTagged date                         : UTC 2013-01-27 20:10:07\n\nVideo\nID                                  : 1\nFormat                              : AVC\nFormat/Info                         : Advanced Video Codec\nFormat profile                      : &lt;a class=&quot;__cf_email__&quot; href=&quot;/cdn-cgi/l/email-protection&quot; data-cfemail=&quot;a6eecfc1cee6ea958897&quot;&gt;[email&amp;#160;protected]&lt;/a&gt;&lt;script cf-hash='f9e31' type=&quot;text/javascript&quot;&gt;\n/* &lt;![CDATA[ */!function(){try{var t=&quot;currentScript&quot;in document?document.currentScript:function(){for(var t=document.getElementsByTagName(&quot;script&quot;),e=t.length;e--;)if(t[e].getAttribute(&quot;cf-hash&quot;))return t[e]}();if(t&amp;&amp;t.previousSibling){var e,r,n,i,c=t.previousSibling,a=c.getAttribute(&quot;data-cfemail&quot;);if(a){for(e=&quot;&quot;,r=parseInt(a.substr(0,2),16),n=2;a.length-n;n+=2)i=parseInt(a.substr(n,2),16)^r,e+=String.fromCharCode(i);e=document.createTextNode(e),c.parentNode.replaceChild(e,c)}}}catch(u){}}();/* ]]&gt; */&lt;/script&gt;\nFormat settings, CABAC              : Yes\nFormat settings, ReFrames           : 8 frames\nCodec ID                            : avc1\nCodec ID/Info                       : Advanced Video Coding\nDuration                            : 3h 7mn\nBit rate                            : 824 Kbps\nMaximum bit rate                    : 5 583 Kbps\nWidth                               : 720 pixels\nHeight                              : 408 pixels\nDisplay aspect ratio                : 16:9\nFrame rate mode                     : Constant\nFrame rate                          : 23.976 fps\nColor space                         : YUV\nChroma subsampling                  : 4:2:0\nBit depth                           : 8 bits\nScan type                           : Progressive\nBits/(Pixel*Frame)                  : 0.117\nStream size                         : 1.08 GiB (86%)\nWriting library                     : x264 core 125 r2208 d9d2288\nEncoding settings                   : cabac=1 / ref=8 / deblock=1:-1:-1 / analyse=0x3:0x133 / me=umh / subme=9 / psy=1 / psy_rd=1.00:0.10 / mixed_ref=1 / me_range=16 / chroma_me=1 / trellis=2 / 8x8dct=1 / cqm=0 / deadzone=21,11 / fast_pskip=1 / chroma_qp_offset=-3 / threads=3 / lookahead_threads=1 / sliced_threads=0 / nr=0 / decimate=1 / interlaced=0 / bluray_compat=0 / constrained_intra=0 / bframes=3 / b_pyramid=2 / b_adapt=2 / b_bias=0 / direct=3 / weightb=1 / open_gop=0 / weightp=2 / keyint=250 / keyint_min=23 / scenecut=40 / intra_refresh=0 / rc_lookahead=60 / rc=crf / mbtree=1 / crf=22.0 / qcomp=0.60 / qpmin=0 / qpmax=69 / qpstep=4 / ip_ratio=1.40 / aq=1:1.00\nEncoded date                        : UTC 2013-01-27 20:10:07\nTagged date                         : UTC 2013-01-27 20:12:24\n\nAudio\nID                                  : 2\nFormat                              : AC-3\nFormat/Info                         : Audio Coding 3\nMode extension                      : CM (complete main)\nFormat settings, Endianness         : Big\nCodec ID                            : ac-3\nDuration                            : 3h 7mn\nBit rate mode                       : Constant\nBit rate                            : 128 Kbps\nChannel(s)                          : 2 channels\nChannel positions                   : Front: L R\nSampling rate                       : 48.0 KHz\nBit depth                           : 16 bits\nCompression mode                    : Lossy\nDelay relative to video             : 83ms\nStream size                         : 172 MiB (13%)\nEncoded date                        : UTC 2013-01-27 20:11:46\nTagged date                         : UTC 2013-01-27 20:12:24\n","torrent":{"xt":"urn:btih:0dff980566984432f82a7c77873d13b98d9b5b50","amp;dn":"king+kong+2005++Blu-+ray+rip++Spanish+Latino+only+480p","amp;tr":["udp%3A%2F%2Ftracker.openbittorrent.com%3A80","udp%3A%2F%2Fopen.demonii.com%3A1337","udp%3A%2F%2Ftracker.coppersurfer.tk%3A6969","udp%3A%2F%2Fexodus.desync.com%3A6969"],"infoHash":"0dff980566984432f82a7c77873d13b98d9b5b50","infoHashBuffer":{"type":"Buffer","data":[13,255,152,5,102,152,68,50,248,42,124,119,135,61,19,185,141,155,91,80]},"announce":[],"urlList":[]}}